<svg width="24" height="24" viewBox="0 0 24 24" fill="none" xmlns="http://www.w3.org/2000/svg">
<path d="M21.697 16.4679C21.677 16.4519 19.557 14.8279 19.594 10.4379C19.614 7.90593 18.782 5.65593 17.247 4.10293C15.872 2.70993 14.01 1.93993 12.005 1.92993H11.992C9.98804 1.93993 8.12604 2.70993 6.75004 4.10393C5.21604 5.65693 4.38204 7.90593 4.40404 10.4379C4.44104 14.7679 2.38404 16.4049 2.30204 16.4679C2.04204 16.6609 1.93604 16.9979 2.03704 17.3059C2.13904 17.6139 2.42704 17.8209 2.74904 17.8209H7.66904C7.77104 20.1309 9.66604 21.9809 11.999 21.9809C14.332 21.9809 16.225 20.1309 16.326 17.8209H21.248C21.57 17.8209 21.858 17.6149 21.958 17.3069C22.061 16.9999 21.955 16.6619 21.695 16.4689L21.697 16.4679ZM12 20.4779C10.495 20.4779 9.27004 19.3009 9.17204 17.8199H14.828C14.728 19.2999 13.505 20.4799 12 20.4799V20.4779ZM4.38004 16.3199C5.12004 15.1879 5.92804 13.2919 5.90404 10.4239C5.88604 8.26393 6.54804 6.44193 7.81704 5.15693C8.91004 4.04993 10.397 3.43693 12 3.42993C13.603 3.43793 15.087 4.04993 16.18 5.15793C17.45 6.44293 18.113 8.26393 18.095 10.4249C18.071 13.2929 18.88 15.1899 19.62 16.3209H4.38004V16.3199Z" fill="currentColor"/>
</svg>
